<svg width="20" height="20" viewBox="0 0 20 20" fill="none" xmlns="http://www.w3.org/2000/svg">
<path d="M9.14318 2.2571C9.53185 1.61128 10.4681 1.61128 10.8568 2.2571L12.7988 5.4841C12.9385 5.71611 13.1662 5.88158 13.43 5.94268L17.0992 6.79246C17.8335 6.96253 18.1228 7.853 17.6287 8.42221L15.1598 11.2664C14.9823 11.4709 14.8953 11.7386 14.9187 12.0084L15.2444 15.7606C15.3095 16.5115 14.552 17.0619 13.858 16.7678L10.3901 15.2986C10.1408 15.193 9.85924 15.193 9.6099 15.2986L6.14198 16.7678C5.44794 17.0619 4.69046 16.5115 4.75563 15.7606L5.08127 12.0084C5.10469 11.7386 5.0177 11.4709 4.84019 11.2664L2.37125 8.42221C1.87714 7.85301 2.16647 6.96253 2.90078 6.79247L6.56997 5.94268C6.83377 5.88158 7.06152 5.71611 7.20115 5.4841L9.14318 2.2571Z" fill="#E4A802" stroke="#E4A802" stroke-width="1.25"/>
</svg>
